<mxfile host="65bd71144e">
    <diagram id="AsM-yAR2kF_NrG1EiAPU" name="Page-1">
        <mxGraphModel dx="725" dy="585" grid="1" gridSize="10" guides="1" tooltips="1" connect="1" arrows="1" fold="1" page="1" pageScale="1" pageWidth="1169" pageHeight="827" math="0" shadow="0">
            <root>
                <mxCell id="0"/>
                <mxCell id="1" parent="0"/>
                <mxCell id="2" value="User" style="whiteSpace=wrap;html=1;align=center;" parent="1" vertex="1">
                    <mxGeometry x="160" y="300" width="100" height="40" as="geometry"/>
                </mxCell>
                <mxCell id="3" value="Map" style="whiteSpace=wrap;html=1;align=center;" parent="1" vertex="1">
                    <mxGeometry x="760" y="300" width="100" height="40" as="geometry"/>
                </mxCell>
                <mxCell id="4" value="&lt;u&gt;userID&lt;/u&gt;" style="ellipse;whiteSpace=wrap;html=1;align=center;" parent="1" vertex="1">
                    <mxGeometry x="140" y="150" width="100" height="40" as="geometry"/>
                </mxCell>
                <mxCell id="5" value="joinDate" style="ellipse;whiteSpace=wrap;html=1;align=center;" parent="1" vertex="1">
                    <mxGeometry x="160" y="374" width="100" height="40" as="geometry"/>
                </mxCell>
                <mxCell id="6" value="country" style="ellipse;whiteSpace=wrap;html=1;align=center;" parent="1" vertex="1">
                    <mxGeometry x="30" y="300" width="100" height="40" as="geometry"/>
                </mxCell>
                <mxCell id="8" value="Plays" style="shape=rhombus;perimeter=rhombusPerimeter;whiteSpace=wrap;html=1;align=center;" parent="1" vertex="1">
                    <mxGeometry x="460" y="290" width="120" height="60" as="geometry"/>
                </mxCell>
                <mxCell id="9" value="" style="endArrow=none;html=1;rounded=0;exitX=0;exitY=0.5;exitDx=0;exitDy=0;entryX=1;entryY=0.5;entryDx=0;entryDy=0;" parent="1" source="8" target="2" edge="1">
                    <mxGeometry relative="1" as="geometry">
                        <mxPoint x="722.5" y="351.5" as="sourcePoint"/>
                        <mxPoint x="550" y="290" as="targetPoint"/>
                    </mxGeometry>
                </mxCell>
                <mxCell id="10" value="" style="endArrow=none;html=1;rounded=0;exitX=0;exitY=0.5;exitDx=0;exitDy=0;entryX=1;entryY=0.5;entryDx=0;entryDy=0;" parent="1" source="3" target="8" edge="1">
                    <mxGeometry relative="1" as="geometry">
                        <mxPoint x="722.5" y="351.5" as="sourcePoint"/>
                        <mxPoint x="550" y="290" as="targetPoint"/>
                    </mxGeometry>
                </mxCell>
                <mxCell id="12" value="&lt;u&gt;date&lt;/u&gt;" style="ellipse;whiteSpace=wrap;html=1;align=center;" parent="1" vertex="1">
                    <mxGeometry x="470" y="414" width="100" height="40" as="geometry"/>
                </mxCell>
                <mxCell id="13" value="duration" style="ellipse;whiteSpace=wrap;html=1;align=center;" parent="1" vertex="1">
                    <mxGeometry x="340" y="210" width="100" height="40" as="geometry"/>
                </mxCell>
                <mxCell id="15" value="helpCount" style="ellipse;whiteSpace=wrap;html=1;align=center;" parent="1" vertex="1">
                    <mxGeometry x="590" y="210" width="100" height="40" as="geometry"/>
                </mxCell>
                <mxCell id="16" value="score" style="ellipse;whiteSpace=wrap;html=1;align=center;dashed=1;" parent="1" vertex="1">
                    <mxGeometry x="350" y="414" width="100" height="40" as="geometry"/>
                </mxCell>
                <mxCell id="17" value="&lt;u&gt;title&lt;/u&gt;" style="ellipse;whiteSpace=wrap;html=1;align=center;" parent="1" vertex="1">
                    <mxGeometry x="710" y="210" width="100" height="40" as="geometry"/>
                </mxCell>
                <mxCell id="18" value="" style="endArrow=none;html=1;rounded=0;exitX=0.5;exitY=0;exitDx=0;exitDy=0;entryX=0.5;entryY=1;entryDx=0;entryDy=0;" parent="1" source="3" target="17" edge="1">
                    <mxGeometry relative="1" as="geometry">
                        <mxPoint x="802.5" y="411.5" as="sourcePoint"/>
                        <mxPoint x="630" y="350" as="targetPoint"/>
                    </mxGeometry>
                </mxCell>
                <mxCell id="19" value="" style="endArrow=none;html=1;rounded=0;exitX=0.5;exitY=0;exitDx=0;exitDy=0;entryX=0.5;entryY=1;entryDx=0;entryDy=0;" parent="1" source="12" target="8" edge="1">
                    <mxGeometry relative="1" as="geometry">
                        <mxPoint x="732.5" y="421.5" as="sourcePoint"/>
                        <mxPoint x="560" y="360" as="targetPoint"/>
                    </mxGeometry>
                </mxCell>
                <mxCell id="20" value="" style="endArrow=none;html=1;rounded=0;exitX=0.5;exitY=1;exitDx=0;exitDy=0;entryX=0;entryY=0;entryDx=0;entryDy=0;" parent="1" source="13" target="8" edge="1">
                    <mxGeometry relative="1" as="geometry">
                        <mxPoint x="732.5" y="421.5" as="sourcePoint"/>
                        <mxPoint x="560" y="360" as="targetPoint"/>
                    </mxGeometry>
                </mxCell>
                <mxCell id="21" value="" style="endArrow=none;html=1;rounded=0;exitX=0.5;exitY=0;exitDx=0;exitDy=0;entryX=0;entryY=1;entryDx=0;entryDy=0;" parent="1" source="16" target="8" edge="1">
                    <mxGeometry relative="1" as="geometry">
                        <mxPoint x="732.5" y="421.5" as="sourcePoint"/>
                        <mxPoint x="560" y="360" as="targetPoint"/>
                    </mxGeometry>
                </mxCell>
                <mxCell id="22" value="" style="endArrow=none;html=1;rounded=0;exitX=1;exitY=0;exitDx=0;exitDy=0;entryX=0.5;entryY=1;entryDx=0;entryDy=0;" parent="1" source="8" target="15" edge="1">
                    <mxGeometry relative="1" as="geometry">
                        <mxPoint x="732.5" y="421.5" as="sourcePoint"/>
                        <mxPoint x="560" y="360" as="targetPoint"/>
                    </mxGeometry>
                </mxCell>
                <mxCell id="24" value="" style="endArrow=none;html=1;rounded=0;exitX=0.5;exitY=0;exitDx=0;exitDy=0;entryX=0.5;entryY=1;entryDx=0;entryDy=0;" edge="1" parent="1" source="2" target="4">
                    <mxGeometry relative="1" as="geometry">
                        <mxPoint x="472.5" y="351.5" as="sourcePoint"/>
                        <mxPoint x="300" y="290" as="targetPoint"/>
                    </mxGeometry>
                </mxCell>
                <mxCell id="25" value="" style="endArrow=none;html=1;rounded=0;exitX=0;exitY=0.5;exitDx=0;exitDy=0;entryX=1;entryY=0.5;entryDx=0;entryDy=0;" edge="1" parent="1" source="2" target="6">
                    <mxGeometry relative="1" as="geometry">
                        <mxPoint x="472.5" y="351.5" as="sourcePoint"/>
                        <mxPoint x="300" y="290" as="targetPoint"/>
                    </mxGeometry>
                </mxCell>
                <mxCell id="26" value="" style="endArrow=none;html=1;rounded=0;exitX=0.5;exitY=0;exitDx=0;exitDy=0;entryX=0.5;entryY=1;entryDx=0;entryDy=0;" edge="1" parent="1" source="5" target="2">
                    <mxGeometry relative="1" as="geometry">
                        <mxPoint x="472.5" y="351.5" as="sourcePoint"/>
                        <mxPoint x="300" y="290" as="targetPoint"/>
                    </mxGeometry>
                </mxCell>
                <mxCell id="27" value="username" style="ellipse;whiteSpace=wrap;html=1;align=center;" vertex="1" parent="1">
                    <mxGeometry x="30" y="220" width="100" height="40" as="geometry"/>
                </mxCell>
                <mxCell id="28" value="" style="endArrow=none;html=1;rounded=0;exitX=0.073;exitY=-0.021;exitDx=0;exitDy=0;entryX=0.5;entryY=1;entryDx=0;entryDy=0;exitPerimeter=0;" edge="1" parent="1" source="2" target="27">
                    <mxGeometry relative="1" as="geometry">
                        <mxPoint x="462.5" y="341.5" as="sourcePoint"/>
                        <mxPoint x="290" y="280" as="targetPoint"/>
                    </mxGeometry>
                </mxCell>
                <mxCell id="29" value="Character" style="whiteSpace=wrap;html=1;align=center;" vertex="1" parent="1">
                    <mxGeometry x="760" y="630" width="100" height="40" as="geometry"/>
                </mxCell>
                <mxCell id="34" style="edgeStyle=none;html=1;exitX=0.5;exitY=0;exitDx=0;exitDy=0;" edge="1" parent="1" source="32" target="3">
                    <mxGeometry relative="1" as="geometry"/>
                </mxCell>
                <mxCell id="32" value="Has" style="shape=rhombus;perimeter=rhombusPerimeter;whiteSpace=wrap;html=1;align=center;" vertex="1" parent="1">
                    <mxGeometry x="750" y="454" width="120" height="60" as="geometry"/>
                </mxCell>
                <mxCell id="35" value="" style="endArrow=none;html=1;rounded=0;exitX=0.5;exitY=1;exitDx=0;exitDy=0;entryX=0.5;entryY=0;entryDx=0;entryDy=0;" edge="1" parent="1" source="32" target="29">
                    <mxGeometry relative="1" as="geometry">
                        <mxPoint x="622.5" y="551.5" as="sourcePoint"/>
                        <mxPoint x="450" y="490" as="targetPoint"/>
                    </mxGeometry>
                </mxCell>
                <mxCell id="36" value="totalPlayTime" style="ellipse;whiteSpace=wrap;html=1;align=center;dashed=1;" vertex="1" parent="1">
                    <mxGeometry x="30" y="374" width="100" height="40" as="geometry"/>
                </mxCell>
                <mxCell id="37" value="gamesStarted&lt;br&gt;Count" style="ellipse;whiteSpace=wrap;html=1;align=center;dashed=1;" vertex="1" parent="1">
                    <mxGeometry x="30" y="150" width="100" height="40" as="geometry"/>
                </mxCell>
                <mxCell id="38" value="" style="endArrow=none;html=1;rounded=0;exitX=0.192;exitY=0.009;exitDx=0;exitDy=0;entryX=1;entryY=1;entryDx=0;entryDy=0;exitPerimeter=0;" edge="1" parent="1" source="2" target="37">
                    <mxGeometry relative="1" as="geometry">
                        <mxPoint x="302.5" y="241.5" as="sourcePoint"/>
                        <mxPoint x="130" y="180" as="targetPoint"/>
                    </mxGeometry>
                </mxCell>
                <mxCell id="39" value="" style="endArrow=none;html=1;rounded=0;exitX=0;exitY=1;exitDx=0;exitDy=0;entryX=1;entryY=0;entryDx=0;entryDy=0;" edge="1" parent="1" source="2" target="36">
                    <mxGeometry relative="1" as="geometry">
                        <mxPoint x="302.5" y="241.5" as="sourcePoint"/>
                        <mxPoint x="130" y="180" as="targetPoint"/>
                    </mxGeometry>
                </mxCell>
                <mxCell id="40" value="games&lt;br&gt;Completed" style="ellipse;whiteSpace=wrap;html=1;align=center;dashed=1;" vertex="1" parent="1">
                    <mxGeometry x="250" y="150" width="100" height="40" as="geometry"/>
                </mxCell>
                <mxCell id="41" value="" style="endArrow=none;html=1;rounded=0;exitX=0.75;exitY=0;exitDx=0;exitDy=0;entryX=0.5;entryY=1;entryDx=0;entryDy=0;" edge="1" parent="1" source="2" target="40">
                    <mxGeometry relative="1" as="geometry">
                        <mxPoint x="422.5" y="331.5" as="sourcePoint"/>
                        <mxPoint x="250" y="270" as="targetPoint"/>
                    </mxGeometry>
                </mxCell>
                <mxCell id="42" value="difficulty" style="ellipse;whiteSpace=wrap;html=1;align=center;" vertex="1" parent="1">
                    <mxGeometry x="760" y="720" width="100" height="40" as="geometry"/>
                </mxCell>
                <mxCell id="43" value="" style="endArrow=none;html=1;rounded=0;exitX=0.5;exitY=0;exitDx=0;exitDy=0;entryX=0.5;entryY=1;entryDx=0;entryDy=0;" edge="1" parent="1" source="42" target="29">
                    <mxGeometry relative="1" as="geometry">
                        <mxPoint x="692.5" y="591.5" as="sourcePoint"/>
                        <mxPoint x="520" y="530" as="targetPoint"/>
                    </mxGeometry>
                </mxCell>
                <mxCell id="44" value="topPos" style="ellipse;whiteSpace=wrap;html=1;align=center;" vertex="1" parent="1">
                    <mxGeometry x="470" y="610" width="100" height="40" as="geometry"/>
                </mxCell>
                <mxCell id="45" value="position" style="ellipse;shape=doubleEllipse;margin=3;whiteSpace=wrap;html=1;align=center;" vertex="1" parent="1">
                    <mxGeometry x="610" y="630" width="100" height="40" as="geometry"/>
                </mxCell>
                <mxCell id="46" value="leftPos" style="ellipse;whiteSpace=wrap;html=1;align=center;" vertex="1" parent="1">
                    <mxGeometry x="470" y="680" width="100" height="40" as="geometry"/>
                </mxCell>
                <mxCell id="47" value="charID" style="ellipse;whiteSpace=wrap;html=1;align=center;fontStyle=4;" vertex="1" parent="1">
                    <mxGeometry x="900" y="630" width="100" height="40" as="geometry"/>
                </mxCell>
                <mxCell id="49" value="" style="endArrow=none;html=1;rounded=0;exitX=0;exitY=0.5;exitDx=0;exitDy=0;entryX=1;entryY=0.5;entryDx=0;entryDy=0;" edge="1" parent="1" source="29" target="45">
                    <mxGeometry relative="1" as="geometry">
                        <mxPoint x="832.5" y="591.5" as="sourcePoint"/>
                        <mxPoint x="660" y="530" as="targetPoint"/>
                    </mxGeometry>
                </mxCell>
                <mxCell id="50" value="" style="endArrow=none;html=1;rounded=0;exitX=0;exitY=0.5;exitDx=0;exitDy=0;entryX=1;entryY=0.5;entryDx=0;entryDy=0;" edge="1" parent="1" source="45" target="44">
                    <mxGeometry relative="1" as="geometry">
                        <mxPoint x="832.5" y="591.5" as="sourcePoint"/>
                        <mxPoint x="660" y="530" as="targetPoint"/>
                    </mxGeometry>
                </mxCell>
                <mxCell id="51" value="" style="endArrow=none;html=1;rounded=0;exitX=0;exitY=1;exitDx=0;exitDy=0;entryX=1;entryY=0.5;entryDx=0;entryDy=0;" edge="1" parent="1" source="45" target="46">
                    <mxGeometry relative="1" as="geometry">
                        <mxPoint x="832.5" y="591.5" as="sourcePoint"/>
                        <mxPoint x="660" y="530" as="targetPoint"/>
                    </mxGeometry>
                </mxCell>
                <mxCell id="52" value="" style="endArrow=none;html=1;rounded=0;exitX=0;exitY=0.5;exitDx=0;exitDy=0;" edge="1" parent="1" source="47" target="29">
                    <mxGeometry relative="1" as="geometry">
                        <mxPoint x="1052.5" y="651.5" as="sourcePoint"/>
                        <mxPoint x="880" y="590" as="targetPoint"/>
                    </mxGeometry>
                </mxCell>
                <mxCell id="58" value="characterCount" style="ellipse;whiteSpace=wrap;html=1;align=center;dashed=1;" vertex="1" parent="1">
                    <mxGeometry x="470" y="210" width="100" height="40" as="geometry"/>
                </mxCell>
                <mxCell id="60" value="" style="endArrow=none;html=1;rounded=0;exitX=0.5;exitY=1;exitDx=0;exitDy=0;entryX=0.5;entryY=0;entryDx=0;entryDy=0;" edge="1" parent="1" source="58" target="8">
                    <mxGeometry relative="1" as="geometry">
                        <mxPoint x="572.5" y="391.5" as="sourcePoint"/>
                        <mxPoint x="400" y="330" as="targetPoint"/>
                    </mxGeometry>
                </mxCell>
                <mxCell id="61" value="hitboxRadius" style="ellipse;whiteSpace=wrap;html=1;align=center;" vertex="1" parent="1">
                    <mxGeometry x="900" y="560" width="100" height="40" as="geometry"/>
                </mxCell>
                <mxCell id="62" value="" style="endArrow=none;html=1;rounded=0;exitX=1;exitY=0;exitDx=0;exitDy=0;entryX=0;entryY=0.5;entryDx=0;entryDy=0;" edge="1" parent="1" source="29" target="61">
                    <mxGeometry relative="1" as="geometry">
                        <mxPoint x="922.5" y="631.5" as="sourcePoint"/>
                        <mxPoint x="750" y="570" as="targetPoint"/>
                    </mxGeometry>
                </mxCell>
                <mxCell id="63" value="category" style="ellipse;whiteSpace=wrap;html=1;align=center;" vertex="1" parent="1">
                    <mxGeometry x="950" y="240" width="100" height="40" as="geometry"/>
                </mxCell>
                <mxCell id="65" value="rating" style="ellipse;whiteSpace=wrap;html=1;align=center;dashed=1;" vertex="1" parent="1">
                    <mxGeometry x="950" y="300" width="100" height="40" as="geometry"/>
                </mxCell>
                <mxCell id="66" value="available" style="ellipse;whiteSpace=wrap;html=1;align=center;" vertex="1" parent="1">
                    <mxGeometry x="950" y="370" width="100" height="40" as="geometry"/>
                </mxCell>
                <mxCell id="67" value="Has" style="shape=rhombus;perimeter=rhombusPerimeter;whiteSpace=wrap;html=1;align=center;" vertex="1" parent="1">
                    <mxGeometry x="610" y="490" width="120" height="60" as="geometry"/>
                </mxCell>
                <mxCell id="68" value="" style="endArrow=none;html=1;rounded=0;exitX=0;exitY=0;exitDx=0;exitDy=0;entryX=0.5;entryY=1;entryDx=0;entryDy=0;" edge="1" parent="1" source="29" target="67">
                    <mxGeometry relative="1" as="geometry">
                        <mxPoint x="752.5" y="501.5" as="sourcePoint"/>
                        <mxPoint x="580" y="440" as="targetPoint"/>
                    </mxGeometry>
                </mxCell>
                <mxCell id="69" value="" style="endArrow=none;html=1;rounded=0;exitX=0.5;exitY=0;exitDx=0;exitDy=0;entryX=1;entryY=1;entryDx=0;entryDy=0;" edge="1" parent="1" source="67" target="8">
                    <mxGeometry relative="1" as="geometry">
                        <mxPoint x="752.5" y="501.5" as="sourcePoint"/>
                        <mxPoint x="580" y="440" as="targetPoint"/>
                    </mxGeometry>
                </mxCell>
                <mxCell id="70" value="" style="endArrow=none;html=1;rounded=0;exitX=1;exitY=0;exitDx=0;exitDy=0;entryX=0;entryY=0.5;entryDx=0;entryDy=0;" edge="1" parent="1" source="3" target="63">
                    <mxGeometry relative="1" as="geometry">
                        <mxPoint x="942.5" y="571.5" as="sourcePoint"/>
                        <mxPoint x="770" y="510" as="targetPoint"/>
                    </mxGeometry>
                </mxCell>
                <mxCell id="71" value="" style="endArrow=none;html=1;rounded=0;exitX=0;exitY=0.5;exitDx=0;exitDy=0;entryX=1;entryY=0.5;entryDx=0;entryDy=0;" edge="1" parent="1" source="65" target="3">
                    <mxGeometry relative="1" as="geometry">
                        <mxPoint x="942.5" y="571.5" as="sourcePoint"/>
                        <mxPoint x="770" y="510" as="targetPoint"/>
                    </mxGeometry>
                </mxCell>
                <mxCell id="72" value="" style="endArrow=none;html=1;rounded=0;exitX=0;exitY=0.5;exitDx=0;exitDy=0;entryX=1;entryY=1;entryDx=0;entryDy=0;exitPerimeter=0;" edge="1" parent="1" source="66" target="3">
                    <mxGeometry relative="1" as="geometry">
                        <mxPoint x="942.5" y="571.5" as="sourcePoint"/>
                        <mxPoint x="770" y="510" as="targetPoint"/>
                    </mxGeometry>
                </mxCell>
                <mxCell id="73" value="Image" style="whiteSpace=wrap;html=1;align=center;" vertex="1" parent="1">
                    <mxGeometry x="1280" y="334" width="100" height="40" as="geometry"/>
                </mxCell>
                <mxCell id="74" value="" style="triangle;whiteSpace=wrap;html=1;rotation=90;" vertex="1" parent="1">
                    <mxGeometry x="1305" y="394" width="50" height="70" as="geometry"/>
                </mxCell>
                <mxCell id="75" value="&lt;font style=&quot;font-size: 10px;&quot;&gt;ISA&lt;/font&gt;" style="text;html=1;align=center;verticalAlign=middle;resizable=0;points=[];autosize=1;strokeColor=none;fillColor=none;imageWidth=17;imageHeight=17;" vertex="1" parent="1">
                    <mxGeometry x="1310" y="410" width="40" height="30" as="geometry"/>
                </mxCell>
                <mxCell id="76" value="CharacterImage" style="whiteSpace=wrap;html=1;align=center;" vertex="1" parent="1">
                    <mxGeometry x="1200" y="474" width="100" height="40" as="geometry"/>
                </mxCell>
                <mxCell id="77" value="MapImage" style="whiteSpace=wrap;html=1;align=center;" vertex="1" parent="1">
                    <mxGeometry x="1370" y="474" width="100" height="40" as="geometry"/>
                </mxCell>
                <mxCell id="78" value="&lt;u&gt;imgSrc&lt;/u&gt;" style="ellipse;whiteSpace=wrap;html=1;align=center;" vertex="1" parent="1">
                    <mxGeometry x="1420" y="334" width="100" height="40" as="geometry"/>
                </mxCell>
                <mxCell id="79" value="imgAlt" style="ellipse;whiteSpace=wrap;html=1;align=center;" vertex="1" parent="1">
                    <mxGeometry x="1420" y="260" width="100" height="40" as="geometry"/>
                </mxCell>
                <mxCell id="80" value="" style="endArrow=none;html=1;rounded=0;exitX=0;exitY=0.5;exitDx=0;exitDy=0;entryX=1;entryY=0;entryDx=0;entryDy=0;" edge="1" parent="1" source="79" target="73">
                    <mxGeometry relative="1" as="geometry">
                        <mxPoint x="1482.5" y="451.5" as="sourcePoint"/>
                        <mxPoint x="1310" y="390" as="targetPoint"/>
                    </mxGeometry>
                </mxCell>
                <mxCell id="81" value="" style="endArrow=none;html=1;rounded=0;exitX=0;exitY=0.5;exitDx=0;exitDy=0;entryX=1;entryY=0.5;entryDx=0;entryDy=0;" edge="1" parent="1" source="78" target="73">
                    <mxGeometry relative="1" as="geometry">
                        <mxPoint x="1482.5" y="451.5" as="sourcePoint"/>
                        <mxPoint x="1310" y="390" as="targetPoint"/>
                    </mxGeometry>
                </mxCell>
                <mxCell id="82" value="" style="endArrow=none;html=1;rounded=0;exitX=0.5;exitY=1;exitDx=0;exitDy=0;entryX=0.5;entryY=0;entryDx=0;entryDy=0;" edge="1" parent="1" source="74" target="76">
                    <mxGeometry relative="1" as="geometry">
                        <mxPoint x="1482.5" y="451.5" as="sourcePoint"/>
                        <mxPoint x="1310" y="390" as="targetPoint"/>
                    </mxGeometry>
                </mxCell>
                <mxCell id="83" value="" style="endArrow=none;html=1;rounded=0;exitX=0.5;exitY=0;exitDx=0;exitDy=0;entryX=0.5;entryY=0;entryDx=0;entryDy=0;" edge="1" parent="1" source="77" target="74">
                    <mxGeometry relative="1" as="geometry">
                        <mxPoint x="1482.5" y="451.5" as="sourcePoint"/>
                        <mxPoint x="1310" y="390" as="targetPoint"/>
                    </mxGeometry>
                </mxCell>
                <mxCell id="84" value="" style="endArrow=none;html=1;rounded=0;entryX=0.5;entryY=1;entryDx=0;entryDy=0;exitX=0;exitY=0.5;exitDx=0;exitDy=0;" edge="1" parent="1" source="74" target="73">
                    <mxGeometry relative="1" as="geometry">
                        <mxPoint x="1330" y="400" as="sourcePoint"/>
                        <mxPoint x="1160" y="370" as="targetPoint"/>
                    </mxGeometry>
                </mxCell>
                <mxCell id="86" value="DISJOINT" style="text;html=1;align=center;verticalAlign=middle;resizable=0;points=[];autosize=1;strokeColor=none;fillColor=none;fontSize=10;" vertex="1" parent="1">
                    <mxGeometry x="1370" y="399" width="70" height="30" as="geometry"/>
                </mxCell>
                <mxCell id="88" style="edgeStyle=none;html=1;exitX=0;exitY=0.5;exitDx=0;exitDy=0;entryX=0.75;entryY=1;entryDx=0;entryDy=0;fontSize=10;" edge="1" parent="1" source="87" target="3">
                    <mxGeometry relative="1" as="geometry">
                        <Array as="points">
                            <mxPoint x="970" y="490"/>
                        </Array>
                    </mxGeometry>
                </mxCell>
                <mxCell id="89" style="edgeStyle=none;html=1;exitX=1;exitY=0.5;exitDx=0;exitDy=0;entryX=0;entryY=0.5;entryDx=0;entryDy=0;fontSize=10;" edge="1" parent="1" source="87" target="73">
                    <mxGeometry relative="1" as="geometry"/>
                </mxCell>
                <mxCell id="87" value="Has" style="shape=rhombus;perimeter=rhombusPerimeter;whiteSpace=wrap;html=1;align=center;" vertex="1" parent="1">
                    <mxGeometry x="1110" y="324" width="120" height="60" as="geometry"/>
                </mxCell>
                <mxCell id="91" style="edgeStyle=none;html=1;exitX=0;exitY=0.5;exitDx=0;exitDy=0;entryX=0.75;entryY=1;entryDx=0;entryDy=0;fontSize=10;" edge="1" parent="1" source="90" target="29">
                    <mxGeometry relative="1" as="geometry">
                        <Array as="points">
                            <mxPoint x="980" y="720"/>
                        </Array>
                    </mxGeometry>
                </mxCell>
                <mxCell id="92" style="edgeStyle=none;html=1;exitX=0.5;exitY=0;exitDx=0;exitDy=0;entryX=0;entryY=1;entryDx=0;entryDy=0;fontSize=10;" edge="1" parent="1" source="90" target="73">
                    <mxGeometry relative="1" as="geometry">
                        <Array as="points">
                            <mxPoint x="1160" y="460"/>
                        </Array>
                    </mxGeometry>
                </mxCell>
                <mxCell id="90" value="Has" style="shape=rhombus;perimeter=rhombusPerimeter;whiteSpace=wrap;html=1;align=center;" vertex="1" parent="1">
                    <mxGeometry x="1110" y="590" width="120" height="60" as="geometry"/>
                </mxCell>
                <mxCell id="93" value="difficulty" style="ellipse;whiteSpace=wrap;html=1;align=center;dashed=1;" vertex="1" parent="1">
                    <mxGeometry x="830" y="210" width="100" height="40" as="geometry"/>
                </mxCell>
                <mxCell id="94" value="" style="endArrow=none;html=1;rounded=0;exitX=0.5;exitY=1;exitDx=0;exitDy=0;entryX=0.674;entryY=-0.045;entryDx=0;entryDy=0;fontSize=10;entryPerimeter=0;" edge="1" parent="1" source="93" target="3">
                    <mxGeometry relative="1" as="geometry">
                        <mxPoint x="1012.5" y="391.5" as="sourcePoint"/>
                        <mxPoint x="840" y="330" as="targetPoint"/>
                    </mxGeometry>
                </mxCell>
            </root>
        </mxGraphModel>
    </diagram>
</mxfile>